<svg xmlns="http://www.w3.org/2000/svg" width="inherith" height="inherith" viewBox="0 0 32 32" xml:space="preserve"><path fill="current" d="M8 12c1.103 0 2 .897 2 2s-.897 2-2 2-2-.897-2-2 .897-2 2-2m0-1a3 3 0 1 0 0 6 3 3 0 0 0 0-6zm6-4c1.103 0 2 .897 2 2s-.897 2-2 2-2-.897-2-2 .897-2 2-2m0-1a3 3 0 1 0 0 6 3 3 0 0 0 0-6zm8 3c1.103 0 2 .897 2 2s-.897 2-2 2-2-.897-2-2 .897-2 2-2m0-1a3 3 0 1 0 0 6 3 3 0 0 0 0-6zm2 9c1.103 0 2 .897 2 2s-.897 2-2 2-2-.897-2-2 .897-2 2-2m0-1a3.001 3.001 0 0 0 0 6 3.001 3.001 0 0 0 0-6zM16 3c7.168 0 13 5.832 13 13 0 6.471-4.02 13-13 13-1.591 0-1.965-.341-2.042-.445-.236-.322.07-1.296.315-2.078.418-1.331.893-2.839 0-4.057C13.562 21.451 12.204 21 10 21c-6.755 0-6.995-5.39-7-6C3 8.495 8.953 3 16 3m0-1C8.268 2 2 8 2 15c0 0 0 7 8 7 9 0-2 8 6 8 9 0 14-6.268 14-14S23.732 2 16 2z"/></svg>